<?xml version="1.0" encoding="utf-8"?>
<!-- Generator: Adobe Illustrator 17.0.0, SVG Export Plug-In . SVG Version: 6.00 Build 0)  -->
<!DOCTYPE svg PUBLIC "-//W3C//DTD SVG 1.1//EN" "http://www.w3.org/Graphics/SVG/1.1/DTD/svg11.dtd">
<svg version="1.1" id="Слой_1" xmlns="http://www.w3.org/2000/svg" xmlns:xlink="http://www.w3.org/1999/xlink" x="0px" y="0px"
	 width="188.57px" height="38.642px" viewBox="0 0 188.57 38.642" enable-background="new 0 0 188.57 38.642" xml:space="preserve">
<g>
	<g>
		<path fill="#FFFFFF" d="M33.874,38.145V9.077h7.683c1.792,0,3.16,0.086,4.105,0.258c1.326,0.221,2.436,0.641,3.332,1.261
			c0.896,0.62,1.617,1.489,2.163,2.605c0.545,1.117,0.819,2.344,0.819,3.682c0,2.295-0.73,4.237-2.19,5.826
			c-1.461,1.589-4.1,2.384-7.916,2.384h-4.424v13.052H33.874z M37.445,21.908h4.48c2.307,0,3.946-0.43,4.915-1.289
			c0.969-0.859,1.454-2.068,1.454-3.626c0-1.129-0.285-2.095-0.856-2.899c-0.571-0.804-1.323-1.334-2.255-1.592
			c-0.601-0.159-1.712-0.239-3.332-0.239h-4.406V21.908z"/>
		<path fill="#FFFFFF" d="M56.284,38.145V9.077h18.264v3.185H59.856v9.098h14.097v3.166H59.856V34.96h15.319v3.185H56.284z"/>
		<path fill="#FFFFFF" d="M79.568,38.145V9.077h3.663l16.256,23.269V9.077h3.424v29.068h-3.663L82.992,14.857v23.288H79.568z"/>
		<g>
			<path fill="#FFFFFF" d="M25.435,12.667c2.911,2.973,4.366,6.559,4.366,10.758s-1.455,7.785-4.366,10.758
				c-2.911,2.973-6.422,4.459-10.534,4.459c-4.112,0-7.623-1.486-10.534-4.459C1.456,31.21,0,27.624,0,23.425
				s1.456-7.785,4.367-10.758c2.911-2.973,6.422-4.459,10.534-4.459C19.012,8.208,22.523,9.695,25.435,12.667z M14.901,12.092
				c-3.069,0-5.686,1.106-7.85,3.316c-2.165,2.211-3.248,4.884-3.248,8.017c0,3.134,1.085,5.81,3.257,8.027
				c2.171,2.217,4.785,3.326,7.842,3.326c3.068,0,5.686-1.108,7.85-3.326c2.165-2.217,3.248-4.893,3.248-8.027
				c0-3.133-1.083-5.806-3.248-8.017C20.586,13.197,17.969,12.092,14.901,12.092z"/>
		</g>
	</g>
	<path fill-rule="evenodd" clip-rule="evenodd" fill="#F4F4F4" d="M153.355,0c0,1.99,0,5.97,0,5.97l3.172,0.047
		c0,0,0.425,0.519,0.653,0.76c0,0.016,0-0.029,0-0.013c0,7.898,0,15.796,0,23.694c0,0.016,0,0.031,0,0.047
		c-0.353,0.393-0.646,0.847-1.026,1.213c-0.985,0.036-1.829-0.068-2.798-0.047c0,2.052,0,4.104,0,6.157c-0.746,0-1.492,0-2.239,0
		c0-0.855,0-1.71,0-2.565c-1.88,1.23-4.283,2.34-7.323,2.565c-0.622,0-1.244,0-1.866,0c-4.471-0.395-7.475-2.258-9.888-4.711
		c0-0.016,0-0.031,0-0.047c1.091-1.179,1.972-2.568,2.612-4.198c-1.757,0-3.514,0-5.271,0c-0.015,0-0.031,0-0.047,0
		c-0.395-1.019-0.758-2.071-0.933-3.312c0-0.016,0-0.031,0-0.047c1.994,0.073,4.096,0.04,6.157,0.047c0.015,0,0.031,0,0.047,0
		c1.104,3.658,4.647,6.844,9.561,6.063c3.731-0.592,6.699-3.706,6.95-7.743c0.19-3.057-0.843-5.149-2.379-6.716
		c-1.27-1.296-2.891-2.352-5.177-2.519c-4.374-0.318-6.77,1.959-8.302,4.524c-0.016,0-0.031,0-0.047,0
		c-0.604-2.396-1.731-4.27-3.125-5.877c0-0.016,0-0.031,0-0.047c2.003-2.225,4.851-3.996,8.629-4.571
		c4.185-0.637,7.857,0.627,10.401,2.425c0-1.679,0-3.358,0-5.037c-1.228-0.109-2.659-0.016-3.965-0.047c0-2.006,0-4.011,0-6.017
		C149.219,0,151.287,0,153.355,0z"/>
	<path fill-rule="evenodd" clip-rule="evenodd" fill="#E2E2E2" d="M153.355,0c1.275,0,2.55,0,3.825,0c0,2.239,0,4.538,0,6.776
		c-0.233-0.235-0.653-0.76-0.653-0.76l-3.172-0.047C153.355,5.97,153.355,1.99,153.355,0z"/>
	<path fill-rule="evenodd" clip-rule="evenodd" fill="#FFFFFF" d="M157.18,0c3.716,0,7.432,0,11.147,0c0,1.99,0,3.98,0,5.97
		c-1.104,0.031-2.332-0.062-3.358,0.047c1.99,2.488,3.995,4.96,6.017,7.416c1.994-2.452,3.988-4.905,5.97-7.369
		c0.045-0.001,0.036-0.057,0.047-0.093c-1.12,0-2.239,0-3.358,0c0-1.99,0-3.98,0-5.97c4.975,0,9.95,0,14.925,0c0,1.99,0,3.98,0,5.97
		c-1.042,0.031-2.208-0.062-3.172,0.047c-3.46,4.127-6.808,8.366-10.215,12.547c3.473,4.425,7.063,8.733,10.588,13.106
		c0.933,0,1.866,0,2.799,0c0,2.052,0,4.104,0,6.157c-4.975,0-9.95,0-14.925,0c0-2.052,0-4.104,0-6.157c1.244,0,2.488,0,3.731,0
		c-1.996-2.59-4.279-5.298-6.39-7.929c-2.153,2.635-4.286,5.291-6.437,7.929c1.259,0,2.519,0,3.778,0c0,2.052,0,4.104,0,6.157
		c-2.177,0-4.353,0-6.53,0c0-2.037,0-4.073,0-6.11c-1.433-0.026-3.094-0.016-4.617-0.047c0-0.389,0-0.777,0-1.166
		c0-0.016,0-0.031,0-0.047c3.214-3.938,6.41-7.893,9.608-11.847c-3.168-3.984-6.377-7.927-9.608-11.847c0-0.016,0-0.031,0-0.047
		C157.18,4.478,157.18,2.239,157.18,0z"/>
	<path fill-rule="evenodd" clip-rule="evenodd" fill="#C8C8C8" d="M122.012,8.535c-0.389,0-0.777,0-1.166,0"/>
	<path fill-rule="evenodd" clip-rule="evenodd" fill="#F4F4F4" d="M111.517,12.36c2.353-2.032,5.147-3.622,9.328-3.825
		c0.389,0,0.777,0,1.166,0c4.116,0.19,6.854,1.76,9.142,3.778c0.198,0.237,0.416,0.455,0.653,0.653
		c0.074,0.113,0.167,0.206,0.28,0.28c0,0.016,0,0.031,0,0.047c-1.509,1.538-2.609,3.486-3.311,5.83c-0.016,0-0.031,0-0.047,0
		c-1.343-2.467-3.384-4.235-6.95-4.478c-0.18-0.005-0.585-0.025-0.793,0c-2.4,0.088-3.974,1.001-5.317,2.146
		c-0.253,0.214-0.486,0.447-0.7,0.7c-0.765,0.867-1.377,1.887-1.772,3.125c5.072,0.047,10.152,0.015,15.205,0.047
		c-0.223,1.457-0.284,3.409,0,4.851c0,0.016,0,0.031,0,0.047c-5.068,0-10.137,0-15.205,0c0.912,2.934,2.85,5.029,5.877,5.83
		c3.251,0.86,6.078-0.269,7.836-1.819c0.211-0.186,0.694-0.586,0.793-0.7c0.482-0.045,1.176,0,1.632,0c0.016,0,0.031,0,0.047,0
		c0.642,1.644,1.609,2.962,2.659,4.198c0,0.016,0,0.031,0,0.047c-2.351,2.515-5.365,4.367-9.888,4.711c-0.482,0-0.964,0-1.446,0
		c-4.185-0.329-7.365-2.001-9.655-4.291c-2.29-2.29-3.998-5.475-4.244-9.748c0-0.404,0-0.808,0-1.213
		c0.203-4.182,1.793-6.976,3.825-9.328C110.946,12.97,111.242,12.675,111.517,12.36z"/>
	<path fill-rule="evenodd" clip-rule="evenodd" fill="#E2E2E2" d="M132.086,13.293c1.394,1.607,2.521,3.481,3.125,5.877
		c-0.887,1.539-1.277,4.277-0.653,6.39c-2.061-0.007-4.162,0.027-6.157-0.047c-0.284-1.441-0.223-3.394,0-4.851
		c0.311,0,0.622,0,0.933,0c-0.038-0.476-0.36-1.07-0.56-1.539C129.478,16.779,130.578,14.831,132.086,13.293z"/>
	<path fill-rule="evenodd" clip-rule="evenodd" fill="#C8C8C8" d="M128.728,19.123c0.015,0,0.031,0,0.047,0
		c0.199,0.469,0.522,1.063,0.56,1.539c-0.311,0-0.622,0-0.933,0C128.496,20.135,128.638,19.655,128.728,19.123z"/>
	<path fill-rule="evenodd" clip-rule="evenodd" fill="#E2E2E2" d="M135.211,19.17c0.016,0,0.031,0,0.047,0
		c0.437,1.834,0.715,4.351,0.28,6.39c-0.311,0-0.622,0-0.933,0c-0.016,0-0.031,0-0.047,0
		C133.934,23.447,134.324,20.708,135.211,19.17z"/>
	<path fill-rule="evenodd" clip-rule="evenodd" fill="#E2E2E2" d="M129.381,28.871c1.757,0,3.514,0,5.271,0
		c-0.64,1.63-1.521,3.019-2.612,4.198C130.99,31.833,130.023,30.515,129.381,28.871z"/>
	<path fill-rule="evenodd" clip-rule="evenodd" fill="#E2E2E2" d="M157.18,30.504c0,0.389,0,0.777,0,1.166
		c1.55,0.014,3.2-0.006,4.617,0.047c0,2.037,0,4.073,0,6.11c-2.814,0-5.628,0-8.442,0c0-2.052,0-4.104,0-6.157
		c0.969-0.021,1.814,0.083,2.798,0.047C156.534,31.35,156.826,30.897,157.18,30.504z"/>
</g>
</svg>
