<?xml version="1.0" encoding="utf-8"?>
<!-- Generator: Adobe Illustrator 17.0.0, SVG Export Plug-In . SVG Version: 6.00 Build 0)  -->
<!DOCTYPE svg PUBLIC "-//W3C//DTD SVG 1.1//EN" "http://www.w3.org/Graphics/SVG/1.1/DTD/svg11.dtd">
<svg version="1.1" id="Слой_1" xmlns="http://www.w3.org/2000/svg" xmlns:xlink="http://www.w3.org/1999/xlink" x="0px" y="0px"
	 width="112.286px" height="28.008px" viewBox="0 0 112.286 28.008" enable-background="new 0 0 112.286 28.008"
	 xml:space="preserve">
<g>
	<g>
		<path fill="#FEC50C" d="M16.848,22.521c0,0-2.946,2.471-3.942,1.231c-1.61-1.994,4.938-11.93,4.938-15.428
			c0-5.746-3.832-7.305-8.561-8.128c-3.175-0.549-8.347,0.23-8.347,0.23c0.972,1.31,1.605,1.693,3.249,1.798
			C2.356,3.171,0.497,5.228,0.497,8.433c0,4.943,2.034,6.982,2.034,12.548C2.531,24.07,0,28.008,0,28.008
			c4.475-0.45,6.698-4.595,5.432-7.908c0.712-0.105,1.36,0.055,1.918,0.583c0.329-0.917-0.189-1.984-0.882-2.906
			c0.559-0.298,0.967-0.12,1.854,0.065c-0.079-0.947-0.648-1.953-2.038-2.9c4.027,1.046,6.503-1.759,6.503-4.695
			c0-2.222-1.555-3.811-3.074-3.811c-0.489,0-1.211,0.204-1.619,0.508c-0.285-0.613-0.14-1.43,0.16-2.044
			C7.136,5.199,6.428,5.856,6.931,7.237C6.079,7.317,5.396,7.606,4.933,8.153c0.469,0.604,1.182,0.947,1.998,0.917
			c-0.622,1.286,0.075,2.008,1.087,2.591c0,0-0.643-2.591,0.997-2.591c0.742,0,1.415,0.244,1.415,1.331
			c0,0.952-0.832,2.262-2.746,2.177c-1.919-0.079-3.473-1.32-3.473-4.381c0-2.821,2.277-4.22,5.276-4.314
			c2.706-0.08,4.745,1.385,4.745,4.17c0,3.717-5.357,12.179-5.357,15.488c0,2.481,2.233,3.866,4.415,3.866
			c2.835,0,5.222-2.8,5.222-2.8L16.848,22.521L16.848,22.521z"/>
		<path fill="#FEC50C" d="M16.848,22.521c0,0,2.939,2.471,3.942,1.231c1.603-1.994-4.943-11.93-4.943-15.428
			c0-5.746,3.832-7.305,8.565-8.128c3.175-0.549,8.346,0.23,8.346,0.23c-0.976,1.31-1.608,1.693-3.248,1.798
			c1.823,0.947,3.687,3.004,3.687,6.209c0,4.943-2.038,6.982-2.038,12.548c0,3.09,2.536,7.027,2.536,7.027
			c-4.48-0.45-6.698-4.595-5.437-7.908c-0.712-0.105-1.36,0.055-1.913,0.583c-0.329-0.917,0.19-1.984,0.882-2.906
			c-0.559-0.298-0.967-0.12-1.86,0.065c0.085-0.947,0.653-1.953,2.039-2.9c-4.027,1.046-6.504-1.759-6.504-4.695
			c0-2.222,1.555-3.811,3.076-3.811c0.493,0,1.216,0.204,1.619,0.508c0.289-0.613,0.14-1.43-0.154-2.044
			c1.111,0.299,1.819,0.957,1.315,2.338c0.858,0.079,1.54,0.369,2.004,0.916c-0.473,0.604-1.181,0.947-2.004,0.917
			c0.624,1.286-0.069,2.008-1.081,2.591c0,0,0.643-2.591-1.001-2.591c-0.739,0-1.411,0.244-1.411,1.331
			c0,0.952,0.827,2.262,2.745,2.177c1.914-0.079,3.469-1.32,3.469-4.381c0-2.821-2.277-4.22-5.273-4.314
			c-2.706-0.08-4.748,1.385-4.748,4.17c0,3.717,5.362,12.179,5.362,15.488c0,2.481-2.232,3.866-4.42,3.866
			c-2.831,0-5.222-2.8-5.222-2.8l1.665-2.089H16.848L16.848,22.521z"/>
	</g>
	<g>
		<path fill="#FFFFFF" d="M46.457,20.774v-3.421l-2.725-8.16V9.134h1.51l1.94,6.161h0.06l1.792-6.161h1.51v0.044l-2.458,8.175v3.421
			H46.457z"/>
		<path fill="#FFFFFF" d="M55.862,9c0.809,0,1.572,0.155,2.288,0.466c0.715,0.311,1.34,0.736,1.873,1.273
			c0.533,0.539,0.953,1.17,1.259,1.896c0.306,0.726,0.459,1.498,0.459,2.317c0,0.82-0.153,1.592-0.459,2.318
			s-0.726,1.357-1.259,1.896c-0.533,0.539-1.158,0.963-1.873,1.274c-0.716,0.311-1.479,0.466-2.288,0.466
			c-0.81,0-1.573-0.155-2.288-0.466c-0.716-0.311-1.34-0.735-1.874-1.274c-0.533-0.538-0.953-1.17-1.259-1.896
			c-0.306-0.726-0.459-1.498-0.459-2.318c0-0.819,0.153-1.592,0.459-2.317c0.306-0.726,0.726-1.357,1.259-1.896
			c0.533-0.538,1.157-0.962,1.874-1.273C54.289,9.156,55.052,9,55.862,9z M55.862,10.451c-0.622,0-1.209,0.119-1.763,0.355
			c-0.553,0.237-1.037,0.561-1.451,0.97s-0.74,0.891-0.978,1.444c-0.237,0.553-0.355,1.14-0.355,1.762
			c0,0.632,0.119,1.224,0.355,1.777c0.237,0.553,0.563,1.034,0.978,1.444s0.898,0.733,1.451,0.97
			c0.553,0.237,1.141,0.355,1.763,0.355c0.622,0,1.209-0.118,1.762-0.355c0.553-0.237,1.037-0.56,1.451-0.97
			s0.741-0.891,0.978-1.444c0.237-0.553,0.355-1.146,0.355-1.777c0-0.622-0.119-1.209-0.355-1.762s-0.563-1.034-0.978-1.444
			s-0.898-0.733-1.451-0.97C57.071,10.57,56.483,10.451,55.862,10.451z"/>
		<path fill="#FFFFFF" d="M63.815,17.382c0,0.583,0.158,1.057,0.474,1.422s0.83,0.548,1.54,0.548c0.711,0,1.234-0.185,1.57-0.555
			c0.336-0.37,0.504-0.842,0.504-1.415V9.134h1.451v8.249c0,0.998-0.287,1.812-0.859,2.444c-0.573,0.632-1.457,0.948-2.651,0.948
			c-0.563,0-1.062-0.089-1.496-0.267s-0.799-0.417-1.096-0.718c-0.296-0.301-0.523-0.659-0.681-1.074
			c-0.158-0.415-0.237-0.859-0.237-1.333V9.134h1.481V17.382z"/>
		<path fill="#FFFFFF" d="M71.456,20.774h-1.51V9.148h1.496c0.997,0,1.812,0.284,2.443,0.852s0.948,1.454,0.948,2.658
			c0,0.731-0.166,1.373-0.497,1.925c-0.331,0.553-0.733,0.968-1.207,1.244l1.969,4.946h-1.481l-1.777-4.621h-0.385V20.774z
			 M71.456,14.658c0.583,0,1.054-0.156,1.415-0.467c0.36-0.311,0.541-0.812,0.541-1.503c0-0.711-0.183-1.234-0.548-1.57
			c-0.366-0.335-0.834-0.503-1.407-0.503V14.658z"/>
		<path fill="#FFFFFF" d="M77.172,19.574h2.813v1.2h-4.294V9.134h1.481V19.574z"/>
		<path fill="#FFFFFF" d="M85.11,9c0.809,0,1.572,0.155,2.288,0.466c0.715,0.311,1.34,0.736,1.873,1.273
			c0.533,0.539,0.953,1.17,1.259,1.896c0.306,0.726,0.459,1.498,0.459,2.317c0,0.82-0.153,1.592-0.459,2.318
			s-0.726,1.357-1.259,1.896c-0.533,0.539-1.158,0.963-1.873,1.274c-0.716,0.311-1.479,0.466-2.288,0.466
			c-0.81,0-1.573-0.155-2.288-0.466c-0.716-0.311-1.34-0.735-1.874-1.274c-0.533-0.538-0.953-1.17-1.259-1.896
			c-0.306-0.726-0.459-1.498-0.459-2.318c0-0.819,0.153-1.592,0.459-2.317c0.306-0.726,0.726-1.357,1.259-1.896
			c0.533-0.538,1.157-0.962,1.874-1.273C83.538,9.156,84.3,9,85.11,9z M85.11,10.451c-0.622,0-1.209,0.119-1.763,0.355
			c-0.553,0.237-1.037,0.561-1.451,0.97s-0.74,0.891-0.978,1.444c-0.237,0.553-0.355,1.14-0.355,1.762
			c0,0.632,0.119,1.224,0.355,1.777c0.237,0.553,0.563,1.034,0.978,1.444s0.898,0.733,1.451,0.97
			c0.553,0.237,1.141,0.355,1.763,0.355c0.622,0,1.209-0.118,1.762-0.355c0.553-0.237,1.037-0.56,1.451-0.97
			s0.741-0.891,0.978-1.444c0.237-0.553,0.355-1.146,0.355-1.777c0-0.622-0.119-1.209-0.355-1.762s-0.563-1.034-0.978-1.444
			s-0.898-0.733-1.451-0.97C86.319,10.57,85.732,10.451,85.11,10.451z"/>
		<path fill="#FFFFFF" d="M97.002,14.969h2.933v5.361c-0.375,0.178-0.773,0.316-1.192,0.415c-0.42,0.099-0.852,0.148-1.296,0.148
			c-0.81,0-1.57-0.156-2.281-0.467c-0.71-0.312-1.333-0.736-1.866-1.275c-0.533-0.539-0.953-1.171-1.259-1.898
			c-0.306-0.727-0.459-1.5-0.459-2.321c0-0.821,0.153-1.594,0.459-2.321c0.306-0.727,0.726-1.359,1.259-1.897
			c0.533-0.539,1.155-0.964,1.866-1.275c0.711-0.312,1.471-0.467,2.281-0.467c0.444,0,0.876,0.049,1.296,0.148
			c0.419,0.099,0.817,0.237,1.192,0.415v1.629c-0.741-0.494-1.57-0.741-2.488-0.741c-0.622,0-1.209,0.119-1.762,0.357
			c-0.553,0.238-1.037,0.562-1.451,0.973c-0.415,0.411-0.741,0.894-0.978,1.449S92.9,14.345,92.9,14.969
			c0,0.632,0.118,1.224,0.354,1.777c0.236,0.553,0.561,1.035,0.975,1.444c0.413,0.41,0.896,0.733,1.447,0.97
			s1.137,0.355,1.758,0.355c0.196,0,0.369-0.012,0.517-0.037c0.147-0.024,0.315-0.062,0.502-0.111v-2.933h-1.452V14.969z"/>
		<path fill="#FFFFFF" d="M106.406,9c0.809,0,1.572,0.155,2.288,0.466c0.715,0.311,1.34,0.736,1.873,1.273
			c0.533,0.539,0.953,1.17,1.259,1.896c0.306,0.726,0.459,1.498,0.459,2.317c0,0.82-0.153,1.592-0.459,2.318
			s-0.726,1.357-1.259,1.896c-0.533,0.539-1.158,0.963-1.873,1.274c-0.716,0.311-1.479,0.466-2.288,0.466
			c-0.81,0-1.573-0.155-2.288-0.466c-0.716-0.311-1.34-0.735-1.874-1.274c-0.533-0.538-0.953-1.17-1.259-1.896
			c-0.306-0.726-0.459-1.498-0.459-2.318c0-0.819,0.153-1.592,0.459-2.317c0.306-0.726,0.726-1.357,1.259-1.896
			c0.533-0.538,1.157-0.962,1.874-1.273C104.834,9.156,105.596,9,106.406,9z M106.406,10.451c-0.622,0-1.209,0.119-1.763,0.355
			c-0.553,0.237-1.037,0.561-1.451,0.97s-0.74,0.891-0.978,1.444c-0.237,0.553-0.355,1.14-0.355,1.762
			c0,0.632,0.119,1.224,0.355,1.777c0.237,0.553,0.563,1.034,0.978,1.444s0.898,0.733,1.451,0.97
			c0.553,0.237,1.141,0.355,1.763,0.355c0.622,0,1.209-0.118,1.762-0.355c0.553-0.237,1.037-0.56,1.451-0.97
			s0.741-0.891,0.978-1.444c0.237-0.553,0.355-1.146,0.355-1.777c0-0.622-0.119-1.209-0.355-1.762s-0.563-1.034-0.978-1.444
			s-0.898-0.733-1.451-0.97C107.615,10.57,107.028,10.451,106.406,10.451z"/>
	</g>
</g>
</svg>
