<?xml version="1.0" encoding="utf-8"?>
<!-- Generator: Adobe Illustrator 17.0.0, SVG Export Plug-In . SVG Version: 6.00 Build 0)  -->
<!DOCTYPE svg PUBLIC "-//W3C//DTD SVG 1.1//EN" "http://www.w3.org/Graphics/SVG/1.1/DTD/svg11.dtd">
<svg version="1.1" id="Слой_1" xmlns="http://www.w3.org/2000/svg" xmlns:xlink="http://www.w3.org/1999/xlink" x="0px" y="0px"
	 width="16px" height="17.231px" viewBox="-2.429 -2.615 16 17.231" enable-background="new -2.429 -2.615 16 17.231"
	 xml:space="preserve">
<g>
	<path d="M13.571,1.076v12.308c0,0.333-0.122,0.622-0.366,0.866c-0.243,0.244-0.531,0.365-0.864,0.365H-1.198
		c-0.333,0-0.622-0.122-0.866-0.366s-0.365-0.531-0.365-0.864V1.076c0-0.333,0.122-0.622,0.365-0.866s0.533-0.365,0.866-0.365h1.231
		v-0.923c0-0.422,0.151-0.785,0.451-1.087c0.303-0.3,0.665-0.451,1.088-0.451h0.616c0.422,0,0.785,0.151,1.087,0.451
		c0.3,0.302,0.451,0.663,0.451,1.087v0.923h3.692v-0.923c0-0.422,0.151-0.785,0.452-1.087c0.302-0.3,0.663-0.451,1.087-0.451h0.615
		c0.424,0,0.785,0.151,1.087,0.451c0.302,0.302,0.452,0.663,0.452,1.087v0.923h1.231c0.333,0,0.622,0.122,0.866,0.365
		C13.449,0.455,13.571,0.743,13.571,1.076z M-1.198,13.385h13.539V3.539H-1.198V13.385z M2.495,1.692v-2.77
		c0-0.09-0.029-0.164-0.088-0.221C2.35-1.357,2.277-1.386,2.186-1.386H1.572c-0.09,0-0.164,0.029-0.221,0.088
		C1.292-1.241,1.263-1.168,1.263-1.077v2.77c0,0.09,0.029,0.164,0.088,0.221c0.057,0.059,0.131,0.088,0.221,0.088h0.616
		c0.09,0,0.164-0.029,0.221-0.088C2.466,1.856,2.495,1.781,2.495,1.692z M8.254,10.703l-0.442,0.442
		c-0.059,0.057-0.128,0.088-0.211,0.088c-0.083,0-0.158-0.03-0.221-0.088L5.571,9.327l-1.806,1.818
		c-0.065,0.057-0.138,0.088-0.221,0.088c-0.083,0-0.154-0.03-0.211-0.088l-0.444-0.442c-0.057-0.057-0.086-0.129-0.086-0.211
		s0.029-0.157,0.086-0.221l1.818-1.808L2.889,6.653C2.831,6.59,2.802,6.515,2.802,6.432c0-0.083,0.029-0.154,0.086-0.211
		l0.442-0.442c0.057-0.057,0.128-0.086,0.211-0.086c0.083,0,0.157,0.029,0.221,0.086l1.808,1.808l1.808-1.808
		C7.442,5.721,7.516,5.693,7.6,5.693c0.083,0,0.154,0.029,0.211,0.086l0.444,0.442c0.057,0.057,0.086,0.128,0.086,0.211
		c0,0.083-0.029,0.158-0.086,0.221L6.447,8.461l1.808,1.808c0.057,0.065,0.086,0.139,0.086,0.221S8.312,10.645,8.254,10.703z
		 M9.878,1.692v-2.77c0-0.09-0.029-0.164-0.086-0.221C9.735-1.357,9.66-1.386,9.571-1.386H8.957c-0.09,0-0.164,0.029-0.221,0.088
		C8.678-1.241,8.649-1.168,8.649-1.077v2.77c0,0.09,0.029,0.164,0.086,0.221c0.059,0.059,0.132,0.088,0.221,0.088h0.615
		c0.09,0,0.164-0.029,0.221-0.088C9.85,1.856,9.878,1.781,9.878,1.692z"/>
</g>
</svg>
