<?xml version="1.0" encoding="utf-8"?>
<!-- Generator: Adobe Illustrator 17.0.0, SVG Export Plug-In . SVG Version: 6.00 Build 0)  -->
<!DOCTYPE svg PUBLIC "-//W3C//DTD SVG 1.1//EN" "http://www.w3.org/Graphics/SVG/1.1/DTD/svg11.dtd">
<svg version="1.1" id="Слой_1" xmlns="http://www.w3.org/2000/svg" xmlns:xlink="http://www.w3.org/1999/xlink" x="0px" y="0px"
	 width="15px" height="16.154px" viewBox="-1.929 -2.077 15 16.154" enable-background="new -1.929 -2.077 15 16.154"
	 xml:space="preserve">
<g>
	<path d="M13.071,1.384v11.538c0,0.312-0.114,0.583-0.343,0.812c-0.227,0.229-0.498,0.343-0.81,0.343H-0.775
		c-0.312,0-0.583-0.114-0.812-0.342c-0.227-0.229-0.342-0.499-0.342-0.812V1.384c0-0.312,0.114-0.583,0.342-0.812
		S-1.087,0.23-0.775,0.23h1.154v-0.866c0-0.396,0.141-0.736,0.423-1.019c0.284-0.281,0.623-0.423,1.02-0.423h0.577
		c0.396,0,0.736,0.141,1.019,0.423C3.7-1.371,3.841-1.032,3.841-0.635V0.23h3.461v-0.866c0-0.396,0.141-0.736,0.424-1.019
		c0.283-0.281,0.622-0.423,1.019-0.423h0.576c0.397,0,0.736,0.141,1.019,0.423c0.283,0.283,0.424,0.622,0.424,1.019V0.23h1.154
		c0.312,0,0.583,0.114,0.812,0.342C12.957,0.801,13.071,1.072,13.071,1.384z M-0.775,12.923h12.693v-9.23H-0.775V12.923z
		 M2.687,1.962v-2.597c0-0.085-0.027-0.153-0.082-0.207C2.551-0.898,2.483-0.925,2.398-0.925H1.822
		c-0.085,0-0.153,0.027-0.207,0.082C1.559-0.789,1.532-0.72,1.532-0.635v2.597c0,0.085,0.027,0.153,0.082,0.207
		c0.054,0.055,0.122,0.082,0.207,0.082h0.577c0.085,0,0.153-0.027,0.207-0.082C2.66,2.115,2.687,2.046,2.687,1.962z M9.818,6.612
		l-4.616,4.616c-0.061,0.054-0.129,0.082-0.207,0.082c-0.078,0-0.148-0.028-0.207-0.082L2.191,8.632
		C2.137,8.572,2.11,8.502,2.11,8.424c0-0.078,0.027-0.144,0.081-0.198l0.415-0.415c0.055-0.054,0.12-0.081,0.198-0.081
		S2.95,7.758,3.01,7.812l1.984,1.984l4.002-4.003c0.059-0.054,0.129-0.081,0.207-0.081c0.078,0,0.144,0.027,0.198,0.081l0.415,0.415
		c0.054,0.055,0.081,0.12,0.081,0.198S9.872,6.553,9.818,6.612z M9.609,1.962v-2.597c0-0.085-0.027-0.153-0.081-0.207
		C9.475-0.898,9.405-0.925,9.321-0.925H8.745c-0.085,0-0.153,0.027-0.207,0.082C8.484-0.789,8.457-0.72,8.457-0.635v2.597
		c0,0.085,0.027,0.153,0.081,0.207c0.055,0.055,0.124,0.082,0.207,0.082h0.576c0.085,0,0.153-0.027,0.207-0.082
		C9.582,2.115,9.609,2.046,9.609,1.962z"/>
</g>
</svg>
