<?xml version="1.0" encoding="utf-8"?>
<!-- Generator: Adobe Illustrator 17.0.0, SVG Export Plug-In . SVG Version: 6.00 Build 0)  -->
<!DOCTYPE svg PUBLIC "-//W3C//DTD SVG 1.1//EN" "http://www.w3.org/Graphics/SVG/1.1/DTD/svg11.dtd">
<svg version="1.1" id="Слой_1" xmlns="http://www.w3.org/2000/svg" xmlns:xlink="http://www.w3.org/1999/xlink" x="0px" y="0px"
	 width="16px" height="16px" viewBox="-2.858 -2.858 16 16" enable-background="new -2.858 -2.858 16 16" xml:space="preserve">
<g>
	<path d="M12.071,1.128c0.714,1.226,1.072,2.564,1.072,4.015c0,1.453-0.358,2.791-1.072,4.017c-0.716,1.226-1.686,2.195-2.912,2.911
		c-1.226,0.716-2.564,1.072-4.015,1.072s-2.791-0.356-4.017-1.072c-1.226-0.716-2.197-1.685-2.911-2.911
		C-2.5,7.934-2.858,6.595-2.858,5.143S-2.5,2.354-1.784,1.128c0.714-1.226,1.685-2.197,2.912-2.912
		c1.224-0.717,2.564-1.073,4.015-1.073s2.789,0.356,4.015,1.072S11.355-0.099,12.071,1.128z M10.05,7.987
		c0.507-0.868,0.761-1.815,0.761-2.844c0-1.027-0.254-1.976-0.761-2.844S8.855,0.744,7.987,0.237
		C7.119-0.27,6.172-0.524,5.143-0.524S3.166-0.27,2.3,0.235C1.431,0.742,0.744,1.431,0.237,2.298
		c-0.507,0.87-0.761,1.817-0.761,2.845s0.254,1.977,0.761,2.844C0.744,8.857,1.431,9.543,2.3,10.05s1.815,0.759,2.844,0.759
		s1.976-0.252,2.844-0.759C8.855,9.543,9.543,8.855,10.05,7.987z M6.476,1.475v4.667c0,0.098-0.031,0.177-0.093,0.24
		C6.319,6.444,6.24,6.476,6.144,6.476H2.81c-0.098,0-0.177-0.033-0.24-0.095S2.477,6.24,2.477,6.142V5.476
		c0-0.098,0.031-0.177,0.093-0.24s0.142-0.093,0.24-0.093h2.333V1.475c0-0.096,0.031-0.176,0.093-0.238
		c0.062-0.062,0.142-0.095,0.24-0.095h0.667c0.098,0,0.177,0.033,0.24,0.095C6.445,1.299,6.476,1.38,6.476,1.475z"/>
</g>
</svg>
