<?xml version="1.0" encoding="utf-8"?>
<!-- Generator: Adobe Illustrator 17.0.0, SVG Export Plug-In . SVG Version: 6.00 Build 0)  -->
<!DOCTYPE svg PUBLIC "-//W3C//DTD SVG 1.1//EN" "http://www.w3.org/Graphics/SVG/1.1/DTD/svg11.dtd">
<svg version="1.1" id="Слой_1" xmlns="http://www.w3.org/2000/svg" xmlns:xlink="http://www.w3.org/1999/xlink" x="0px" y="0px"
	 width="22.418px" height="14.946px" viewBox="0 0 22.418 14.946" enable-background="new 0 0 22.418 14.946" xml:space="preserve">
<g>
	<path d="M22.418,0.747v13.451c0,0.203-0.075,0.378-0.223,0.524c-0.146,0.148-0.322,0.223-0.524,0.223H0.747
		c-0.203,0-0.378-0.075-0.525-0.223C0.074,14.576,0,14.401,0,14.198V0.747c0-0.202,0.074-0.377,0.222-0.525
		C0.369,0.074,0.545,0,0.747,0H21.67c0.203,0,0.378,0.074,0.524,0.221C22.343,0.369,22.418,0.545,22.418,0.747z M20.923,10.462
		V4.483c-0.826,0-1.529-0.292-2.113-0.876c-0.584-0.583-0.875-1.288-0.875-2.113H4.483c0,0.825-0.291,1.53-0.875,2.113
		C3.024,4.191,2.319,4.483,1.495,4.483v5.979c0.824,0,1.529,0.291,2.113,0.875s0.875,1.289,0.875,2.113h13.451
		c0-0.824,0.291-1.529,0.875-2.113S20.097,10.462,20.923,10.462z M14.7,5.814c0.163,0.561,0.245,1.114,0.245,1.658
		S14.863,8.57,14.7,9.13c-0.163,0.561-0.395,1.082-0.695,1.566c-0.3,0.482-0.695,0.875-1.185,1.178
		c-0.49,0.305-1.027,0.456-1.611,0.456s-1.12-0.152-1.611-0.456c-0.49-0.303-0.887-0.696-1.185-1.178
		c-0.3-0.484-0.531-1.005-0.695-1.566C7.555,8.57,7.473,8.017,7.473,7.472s0.082-1.097,0.245-1.658
		c0.163-0.56,0.395-1.081,0.695-1.564c0.298-0.483,0.695-0.876,1.185-1.179c0.49-0.304,1.027-0.455,1.611-0.455
		s1.12,0.152,1.611,0.455c0.49,0.303,0.885,0.696,1.185,1.179C14.305,4.733,14.536,5.254,14.7,5.814z M8.967,10.462h4.483V9.34
		h-1.493V4.11h-1.332l-1.728,1.6l0.899,0.934c0.327-0.288,0.541-0.51,0.642-0.666h0.024V9.34H8.967V10.462z"/>
</g>
</svg>
